# xmcd
#
# Track frame offsets:
#	150
#	11043
#	31234
#	46947
#	60393
#	81084
#	101497
#	129092
#	143208
#	164346
#	179182
#	197254
#	213717
#	229911
#
# Disc length: 3297 seconds
# Revision: 0
# Processed by: cddbd v1.5.2PL0 Copyright (c) Steve Scherf et al.
# Submitted via: dBpowerAMP V12.0
#
DISCID=ba0cdf0e
DTITLE=Bottleneck John - All Around Man
DYEAR=2013
DGENRE=Blues
TTITLE0=The lonesome valley
TTITLE1=Come on in my kitchen
TTITLE2=No matter how she done it
TTITLE3=Autumn rime
TTITLE4=Do you call that a buddy?
TTITLE5=Jesus gonna be here
TTITLE6=Out of the rain
TTITLE7=All around man
TTITLE8=Walking in the shadow of the blues
TTITLE9=Mandolinferno
TTITLE10=How long, how long blues
TTITLE11=Only a woman
TTITLE12=You can't get that stuff no more
TTITLE13=Wade in the water
EXTD=
EXTT0=
EXTT1=
EXTT2=
EXTT3=
EXTT4=
EXTT5=
EXTT6=
EXTT7=
EXTT8=
EXTT9=
EXTT10=
EXTT11=
EXTT12=
EXTT13=
PLAYORDER=
